<svg xmlns="http://www.w3.org/2000/svg" version="1.1" xmlns:xlink="http://www.w3.org/1999/xlink" xmlns:svgjs="http://svgjs.com/svgjs" width="1000" height="1400" preserveAspectRatio="none" viewBox="0 0 1000 1400"><g mask="url(&quot;#SvgjsMask1003&quot;)" fill="none"><rect width="1000" height="1400" x="0" y="0" fill="rgba(14, 165, 233, 1)"></rect><path d="M0,385.605C104.704,386.205,210.511,521.213,297.774,463.346C385.563,405.131,311.441,257.324,344.346,157.258C371.881,73.521,467.355,20.068,472.474,-67.931C477.88,-160.874,429.371,-249.039,372.257,-322.562C313.102,-398.712,236.707,-463.889,144.075,-490.676C51.626,-517.41,-44.317,-491.973,-138.042,-470.127C-236.988,-447.064,-361.255,-445.983,-415.694,-360.201C-470.952,-273.128,-394.945,-160.505,-399.902,-57.497C-404.207,31.95,-460.457,114.417,-442.76,202.202C-422.805,301.19,-388.882,421.303,-295.59,459.947C-199.785,499.632,-103.697,385.011,0,385.605" fill="#0d9bdb"></path><path d="M1000 2012.96C1119.608 2009.558 1240.12 1994.879 1342.4569999999999 1932.873 1446.373 1869.911 1524.739 1773.1979999999999 1576.858 1663.442 1629.5059999999999 1552.571 1664.79 1428.131 1639.133 1308.107 1614.159 1191.276 1521.642 1105.8980000000001 1439.194 1019.437 1360.359 936.765 1284.899 827.236 1171.098 817.292 1057.799 807.391 982.6 937.071 873.748 970.0260000000001 766.345 1002.5419999999999 640.3109999999999 945.8330000000001 545.9449999999999 1006.559 443.51199999999994 1072.476 369.885 1186.355 350.66200000000003 1306.639 331.33900000000006 1427.552 391.63599999999997 1543.219 442.37 1654.661 493.159 1766.224 541.663 1886.454 644.79 1952.717 747.914 2018.978 877.473 2016.4450000000002 1000 2012.96" fill="#15adf1"></path></g><defs><mask id="SvgjsMask1003"><rect width="1000" height="1400" fill="#ffffff"></rect></mask></defs></svg>